# xmcd CD database file
# Copyright (C) 1993-1998 Ti Kan
#
# Track frame offsets:
#	150
#	17297
#	33272
#
# Disc length: 623 seconds
#
# Revision: 1
# Processed by: cddbd v1.4b41PL1 Copyright (c) Steve Scherf et al.
# Submitted via: CDValet v3.31 - Copyright (c) 1997 Greg Leichner
#
DISCID=12026d03
DTITLE=Adriana Evans - Love Is All Around
DYEAR=1900
DGENRE=
TTITLE0=Love Is All Around
TTITLE1=Love Is All Around (Mo Bump Remix)
TTITLE2=Love Is All Around (Snippets)
EXTD=
EXTT0=
EXTT1=
EXTT2=
PLAYORDER=
